<svg width="701" height="884" viewBox="0 0 701 884" fill="none" xmlns="http://www.w3.org/2000/svg">
<g clip-path="url(#clip0_14012_2)">
<path d="M120.053 686.794C119.15 692.563 114.276 696.889 108.318 697.069H85.5716C79.7946 697.069 74.9203 693.104 73.6566 687.515L68.6017 656.33C68.4212 655.249 67.338 654.347 66.2548 654.347C64.9911 654.347 64.0885 655.249 64.0885 656.511L60.4779 686.614C59.7557 692.563 54.7009 697.069 48.5628 697.069H25.816C20.039 697.069 15.1647 693.104 14.0815 687.515L7.58242 648.038L1.98597 613.608L0.180664 602.793C0.180664 602.252 0.180664 601.711 0.180664 601.17C0.180664 596.123 4.33287 592.157 9.20719 592.157H26.7186C31.0514 592.157 34.662 595.582 35.3841 599.728L41.8832 636.682L42.4248 640.648L48.0213 600.449C48.5628 595.943 52.354 592.338 56.8672 592.338H75.823C80.5167 592.338 84.3079 595.943 84.8495 600.449L89.9043 638.124V639.566C90.0849 639.566 90.6265 636.862 90.6265 636.862L97.1255 599.909C97.8477 595.582 101.278 592.518 105.61 592.338H123.302C128.177 592.338 132.148 596.303 132.148 601.351C132.148 601.892 132.148 602.432 132.148 602.973L131.426 607.48L119.692 686.975L120.053 686.794Z" fill="#e8f2ef"/>
<path d="M173.851 697.069H157.603C152.368 697.069 148.396 692.743 148.216 687.696V601.531C148.216 596.484 152.187 592.157 157.242 592.157C157.242 592.157 157.423 592.157 157.603 592.157H173.851C178.906 591.977 183.058 595.763 183.239 600.63C183.239 600.99 183.239 601.171 183.239 601.531V687.696C183.239 692.923 179.087 697.069 173.851 697.069Z" fill="#e8f2ef"/>
<path d="M269.532 670.751V688.417C269.532 693.284 265.561 697.069 260.686 697.069H208.513C204 697.25 200.028 693.825 199.848 689.318C199.848 688.958 199.848 688.597 199.848 688.417V602.793C199.848 597.205 203.819 592.157 209.416 592.157H224.58C230.357 592.338 234.871 597.024 235.051 602.793V661.738H260.686C265.561 661.918 269.532 666.064 269.532 670.931" fill="#e8f2ef"/>
<path d="M368.463 628.57V660.116C368.463 680.125 352.395 696.529 332.356 696.529C332.356 696.529 332.356 696.529 332.176 696.529H296.792C291.556 696.529 287.404 692.202 287.404 686.975V601.531C287.404 596.303 291.737 592.157 296.792 592.157H332.176C352.215 592.157 368.463 608.201 368.463 628.029C368.463 628.029 368.463 628.21 368.463 628.39M336.509 641.188C336.689 636.141 332.717 631.815 327.663 631.635C327.482 631.635 327.302 631.635 326.94 631.635H320.622C319.539 631.635 318.636 632.896 318.817 633.978V654.528C318.817 655.609 319.358 656.511 320.441 656.691C320.441 656.691 320.441 656.691 320.622 656.691H326.94C331.995 656.871 336.148 653.086 336.328 648.038C336.328 647.858 336.328 647.498 336.328 647.317V641.008L336.509 641.188Z" fill="#e8f2ef"/>
<path d="M519.928 669.309C519.747 676.159 517.22 682.648 512.887 687.876C508.374 693.284 501.694 696.529 494.473 696.709H467.754H451.145C448.257 696.709 445.729 695.447 443.924 693.284C442.66 691.842 441.758 689.859 441.758 687.696V601.531C441.758 599.728 442.299 598.106 443.383 596.664C445.007 594.14 448.076 592.518 451.145 592.518H494.292C501.694 592.518 508.915 595.582 513.428 601.531C517.581 606.759 519.928 613.248 519.928 620.098C519.928 637.042 511.623 643.532 510.359 644.794C512.526 646.596 520.469 654.888 520.108 669.67M483.28 614.33H475.336C474.614 614.33 473.892 614.87 473.892 615.591V624.785C473.892 625.506 474.434 626.047 475.156 626.047C475.156 626.047 475.156 626.047 475.336 626.047H483.28C486.168 626.047 488.515 623.883 488.515 621.179C488.515 621.179 488.515 621.179 488.515 620.999V619.197C488.515 616.312 486.168 613.969 483.28 614.149M483.28 658.133H475.336C474.614 658.133 474.073 658.494 473.892 659.215C473.892 659.215 473.892 659.215 473.892 659.395V670.932C473.892 671.653 474.614 672.374 475.336 672.374H483.28C486.168 672.374 488.515 670.21 488.515 667.326V663.541C488.515 660.657 486.349 658.313 483.641 658.313C483.641 658.313 483.46 658.313 483.28 658.313" fill="#e8f2ef"/>
<path d="M570.115 621.54V630.193C570.115 630.733 570.657 630.914 571.018 630.914H590.335C593.765 630.914 596.653 633.798 596.653 637.223V651.463C596.653 654.888 593.765 657.772 590.335 657.772H571.018C570.476 657.772 570.115 658.133 570.115 658.674V666.966C570.115 667.507 570.476 667.867 571.018 667.867H597.736C601.527 667.867 604.777 671.112 604.777 674.897V689.498C604.777 693.284 601.708 696.348 597.736 696.348H543.938C538.522 696.348 534.37 692.202 534.37 684.451V599.188C534.37 596.123 538.522 591.977 543.938 591.977H597.736C601.527 591.977 604.596 595.042 604.777 598.827V613.608C604.777 617.394 601.527 620.458 597.736 620.458H571.018C570.476 620.458 570.115 620.999 570.115 621.54Z" fill="#e8f2ef"/>
<path d="M701 628.57V660.116C701 680.125 684.932 696.529 664.893 696.529C664.893 696.529 664.894 696.529 664.713 696.529H629.329C624.094 696.529 619.941 692.202 619.941 686.975V601.531C619.941 596.303 624.274 592.157 629.329 592.157H664.713C684.752 592.157 701 608.201 701 628.029C701 628.029 701 628.21 701 628.39M668.865 641.188C669.046 636.141 665.074 631.815 660.019 631.635C659.839 631.635 659.658 631.635 659.297 631.635H652.979C651.895 631.635 650.993 632.896 651.173 633.978V654.528C651.173 655.609 651.715 656.511 652.798 656.691C652.798 656.691 652.798 656.691 652.979 656.691H659.297C664.352 656.871 668.504 653.086 668.685 648.038C668.685 647.858 668.685 647.498 668.685 647.317V641.008L668.865 641.188Z" fill="#e8f2ef"/>
<path d="M545.383 410.635C544.841 409.373 544.48 408.111 544.119 406.849C545.563 407.21 547.008 407.39 548.452 407.57C548.452 407.57 544.48 401.261 543.578 399.278C543.217 398.377 542.494 396.033 541.772 394.051C543.217 394.051 544.661 394.051 546.105 393.33C543.397 391.166 541.772 388.102 541.411 384.677C541.411 383.956 541.05 382.514 540.689 380.711C541.05 380.711 541.231 380.892 541.592 380.892L539.606 372.96C539.606 372.96 542.856 376.205 545.925 375.664C543.036 372.059 540.509 364.668 539.064 360.342C540.148 360.342 541.231 360.342 542.314 359.981C539.425 358.359 537.62 355.475 537.079 352.23C535.815 346.101 530.76 334.925 530.76 334.925C530.76 334.925 525.525 345.921 522.275 349.526C520.47 351.689 518.303 353.672 516.318 355.655C517.942 356.376 519.567 356.556 521.192 356.376C520.109 359.26 518.664 363.586 517.762 366.831C516.859 369.715 515.234 372.419 513.249 374.763C515.054 375.664 517.04 375.664 518.845 374.763C517.581 376.746 515.957 384.136 514.512 385.939C514.151 386.48 513.61 386.84 513.249 387.381C510.36 384.136 508.374 380.17 507.833 376.024C507.833 374.943 507.291 372.6 506.749 369.896C507.111 369.896 507.652 370.256 508.194 370.256L505.305 358.179C505.305 358.179 510.36 363.226 515.054 362.325C510.721 356.737 506.569 345.56 504.403 338.891C506.027 338.891 507.652 338.891 509.277 338.35C504.944 335.646 502.056 331.32 501.153 326.453C499.348 316.899 491.404 300.135 491.404 300.135C491.404 300.135 483.28 316.899 478.406 322.487C475.518 325.732 472.449 328.796 469.199 331.861C471.546 332.762 474.254 333.303 476.781 332.942C475.157 337.449 472.99 343.938 471.546 348.985C470.102 353.492 467.755 357.638 464.505 361.063C467.033 362.505 470.282 362.505 472.99 361.063C471.185 364.127 468.657 375.303 466.491 378.007C464.325 380.351 461.797 382.514 459.089 384.136C461.256 385.759 463.603 386.84 466.13 387.561C467.033 387.561 467.755 387.561 468.658 387.381C467.574 390.265 466.852 393.149 466.13 396.214C465.589 399.458 458.548 407.931 458.548 407.931C460.534 408.652 462.519 409.012 464.686 409.193C465.588 409.193 466.311 409.193 467.213 408.832C465.95 412.978 464.505 417.845 463.061 419.648C460.895 421.991 458.548 424.154 455.84 425.777C458.006 427.399 460.353 428.48 462.881 429.201C467.574 429.562 471.185 424.515 471.185 424.515C471.185 427.579 471.365 430.644 471.907 433.708C472.81 436.232 473.893 438.755 475.157 441.099C477.142 438.755 478.767 436.232 480.031 433.347C480.934 429.923 481.475 426.498 481.656 423.073C481.656 423.073 483.28 426.858 485.447 430.463V448.489H492.849V438.755C494.654 440.197 496.098 441.279 496.098 441.279C496.098 441.279 495.737 432.626 495.737 431.184C495.737 428.661 495.015 421.27 495.015 421.27C495.015 421.27 497.723 427.759 500.431 430.283C505.125 434.249 511.624 431.184 511.624 431.184C508.374 428.48 506.027 424.875 504.944 420.729C507.111 422.892 509.818 424.515 512.887 425.596C514.873 425.957 516.859 425.777 518.664 425.055C519.387 426.498 520.109 427.759 520.109 427.759C521.372 426.137 522.456 424.515 523.358 422.712C523.9 420.549 524.261 418.206 524.441 415.862C525.164 417.485 526.066 419.107 526.969 420.729V432.446H531.843V426.137C532.926 427.038 534.01 427.759 534.01 427.759C534.01 427.759 533.829 422.171 533.829 421.09C533.829 419.467 533.468 414.6 533.468 414.6C534.371 416.763 535.454 418.746 537.079 420.549C540.148 423.253 544.3 421.27 544.3 421.27C542.133 419.467 540.689 417.124 539.967 414.42C541.411 415.862 543.217 416.944 545.202 417.485C548.271 418.386 552.063 415.502 552.063 415.502C552.063 415.502 547.008 413.339 546.286 411.356M512.165 409.733L513.429 410.094C513.249 410.635 513.068 411.356 512.707 411.716C512.526 410.995 512.346 410.454 511.985 409.733M517.22 416.223V418.746C516.679 418.386 516.318 418.025 515.776 417.665C516.318 417.304 516.679 416.763 517.04 416.223M509.818 390.085C511.082 390.986 512.526 391.707 514.151 392.068C514.693 392.068 515.234 392.068 515.776 391.887C515.054 393.69 514.512 395.673 514.151 397.656C513.79 398.737 513.249 399.639 512.707 400.54C512.165 399.458 511.624 398.557 511.443 398.016C510.902 396.574 509.638 393.149 508.555 389.905C508.916 389.905 509.457 389.905 509.999 389.905" fill="#e8f2ef"/>
<path d="M427.497 452.095V399.278L373.879 367.372L320.262 398.918V438.936C310.332 435.15 300.584 430.824 291.196 425.776L292.46 353.852C292.46 353.852 295.89 339.071 290.835 330.599C289.932 330.238 282.531 328.255 282.17 328.976C281.086 321.586 279.462 314.375 277.115 307.345C275.129 307.345 272.963 307.525 270.977 308.066C270.435 305.723 270.435 300.135 269.713 296.169V211.987H233.607V241.189H224.219V246.417H216.095V241.009H205.805V246.417H197.681V241.009H187.391V307.525C178.004 282.829 173.31 256.511 173.31 230.013C173.671 106.715 275.671 6.4894 401.32 6.4894C526.969 6.4894 410.707 6.4894 415.401 6.84992C395.543 2.34339 375.143 0 354.743 0C209.416 0 91.71 115.547 91.71 258.134C91.71 400.72 209.416 516.268 354.562 516.268C499.709 516.268 582.031 432.266 610.013 319.062C576.976 392.608 507.472 443.262 427.316 452.095M351.674 409.012H367.922V422.712H351.674V409.012ZM351.674 424.334H367.922V438.034H351.674V424.334ZM331.454 408.832H347.702V422.352H331.454V408.652V408.832ZM331.454 424.154H347.702V437.854H331.454V424.154ZM410.346 453.717C407.458 453.717 404.389 453.717 401.5 453.717C398.612 453.717 395.904 453.717 393.015 453.717H410.346ZM194.251 318.521L193.529 321.766C192.988 320.684 192.627 319.603 192.085 318.521H194.251Z" fill="#e8f2ef"/>
<path d="M228.552 194.682V200.09V210.004V210.365H275.49V200.09V195.042H265.199V200.09H257.076V194.682H246.785V200.09H238.842V194.682H228.552Z" fill="#e8f2ef"/>
<path d="M309.43 403.604L319.539 397.295L373.337 365.029L437.787 403.604L445.189 391.166L376.226 351.509L301.486 393.69L309.43 403.604Z" fill="#e8f2ef"/>
<path d="M354.02 161.694C344.813 159.17 343.369 138.08 343.369 138.08C343.369 138.08 343.008 159.17 333.981 162.235C343.189 164.759 344.633 185.849 344.633 185.849C344.633 185.849 344.994 164.759 354.02 161.694Z" fill="#e8f2ef"/>
<path d="M425.691 182.604C426.593 182.965 427.315 183.325 428.218 183.686C430.204 184.227 432.37 184.407 434.356 183.866C432.912 185.308 431.106 186.57 429.121 187.291C428.037 187.832 426.954 188.192 425.871 188.192C425.51 188.192 423.885 188.192 424.427 188.733C425.329 189.274 426.232 189.454 427.315 189.454C428.218 189.635 429.121 189.815 430.204 189.635C432.009 189.454 433.634 188.914 435.259 188.012C433.814 189.815 432.19 191.617 430.204 193.06C429.662 193.6 426.774 195.763 428.218 196.124C429.121 196.124 429.843 196.124 430.745 195.763C431.829 195.763 432.731 195.403 433.634 195.042C435.439 194.141 437.064 192.879 438.508 191.437C437.786 192.879 437.244 194.141 436.703 195.583C436.161 197.025 435.8 197.746 435.078 198.828C434.717 199.369 434.356 199.909 434.175 200.45C434.175 201.532 434.898 200.811 435.62 200.45C436.703 199.909 437.786 199.549 438.869 199.188C439.772 198.648 440.675 197.927 441.577 197.206C441.938 197.025 442.119 196.845 442.48 196.665C442.66 196.845 442.841 197.025 443.202 197.206C443.563 197.206 443.924 197.206 444.285 197.025C445.188 196.845 446.091 196.304 446.993 195.944C448.076 195.944 449.16 195.763 450.423 195.944C452.409 195.763 454.214 194.321 456.2 194.321C457.644 194.321 458.908 193.961 460.172 193.24C460.713 192.879 461.255 192.519 461.977 192.158C462.519 192.158 462.88 192.158 463.421 192.519C464.505 192.519 465.407 191.978 466.129 191.437C466.852 191.077 467.574 190.896 468.296 191.257C469.559 191.617 470.823 191.257 471.726 190.356C471.906 190.175 472.087 189.815 472.448 189.635C472.629 189.635 473.351 189.635 473.712 189.635C474.253 189.635 474.795 189.274 475.156 189.094C475.517 188.733 476.059 188.733 476.6 188.733C477.683 188.914 478.767 188.733 479.669 188.373C480.211 187.652 481.113 187.291 481.836 186.931C483.099 186.931 484.182 186.57 485.085 185.669C485.446 185.128 485.807 184.768 486.529 184.587C486.89 184.587 487.432 184.587 487.793 184.587C488.515 184.407 489.057 184.046 489.598 183.686C490.501 183.506 491.404 182.785 491.945 182.064C492.487 180.982 492.306 180.261 493.57 180.261C494.834 180.261 496.097 180.982 497.181 180.261C497.361 179.9 497.722 179.72 498.083 179.36C498.625 179.36 499.166 179.36 499.708 179.36C500.43 179.36 500.972 178.639 501.152 178.098C501.152 177.918 501.152 177.737 501.152 177.557C501.874 177.016 502.777 177.557 503.499 177.197C503.86 176.836 504.402 176.295 504.582 175.754C505.305 175.394 506.207 175.754 507.11 175.214C507.29 174.853 507.651 174.673 508.012 174.493C508.374 174.493 508.915 174.493 509.276 174.132C510.179 173.772 510.179 173.591 510.72 174.493C512.887 178.278 512.526 183.866 512.887 188.012C512.887 189.094 512.706 192.879 513.609 193.781C514.873 195.223 518.303 193.06 519.205 191.798C519.927 193.42 521.733 194.321 523.538 193.781C524.982 193.6 526.246 192.519 526.788 191.077C527.871 191.978 529.315 192.339 530.579 192.158C531.662 191.617 532.565 190.896 533.287 189.995C533.287 189.995 533.287 189.995 533.467 189.995H534.009C534.55 189.995 535.273 190.175 535.814 189.995C537.078 189.995 538.161 189.274 538.703 188.192C539.064 187.652 539.064 186.39 539.605 186.029C540.147 185.669 539.786 186.029 540.508 186.029C540.688 186.029 541.05 186.029 541.411 186.029C541.952 186.029 542.313 185.849 542.674 185.489C543.577 185.489 544.299 184.768 544.841 184.046C545.382 183.325 545.382 182.244 544.841 181.523C545.563 181.883 546.465 181.883 547.188 181.523C547.729 181.162 548.271 180.802 548.632 180.261C549.173 180.261 549.534 179.9 549.896 179.54C549.896 178.999 550.257 178.639 550.798 178.278C552.604 177.918 552.603 176.115 552.242 174.493C552.062 173.772 551.34 173.411 552.242 173.051C553.145 172.69 554.409 172.51 555.311 172.149C556.034 171.969 556.575 171.428 556.756 170.707C556.756 170.707 556.756 170.347 556.756 170.166C556.756 169.806 556.936 169.626 556.936 169.265C556.395 167.823 555.311 166.381 554.048 165.66C556.395 166.02 558.742 164.398 559.103 162.055C559.103 160.613 557.478 159.711 556.395 159.17C557.839 158.449 559.283 157.548 559.103 155.746C558.922 153.943 556.575 152.861 554.95 152.681C556.214 152.321 557.117 151.239 557.117 150.157C557.117 148.715 556.034 147.634 554.77 147.454C556.214 145.471 554.77 143.308 552.242 144.029C550.979 144.569 549.715 145.29 548.451 146.011C547.188 146.552 546.104 146.913 544.841 147.454C541.23 148.896 537.439 149.977 533.467 150.698C534.009 150.338 534.55 149.977 534.731 149.256C535.273 148.896 535.814 148.535 536.536 148.355C537.619 147.814 537.439 146.913 538.161 146.011C538.522 145.831 538.883 145.651 539.244 145.651C539.786 145.29 540.147 144.93 540.327 144.389C540.327 143.848 540.688 143.308 540.869 142.767C541.411 142.226 542.313 142.046 542.855 141.325C543.396 140.604 543.577 139.702 543.577 138.801C543.938 137.719 545.021 137.9 545.563 136.998C546.465 135.737 545.563 134.114 546.465 133.213C547.188 132.852 547.91 132.492 548.451 132.131C548.812 131.591 549.354 131.23 549.896 130.869C550.437 130.329 550.798 129.788 550.798 128.887C550.798 127.625 550.618 127.625 551.701 127.084C552.784 126.543 554.228 125.281 552.423 124.2C553.506 123.659 554.409 122.938 554.77 121.856C554.77 121.316 554.77 120.955 554.77 120.414C554.77 120.054 555.131 119.513 555.311 119.153C555.311 118.612 555.311 118.251 555.311 117.71C555.673 116.449 557.117 115.547 557.478 114.105C557.478 113.745 557.478 113.204 557.478 112.843C557.839 111.942 558.922 111.221 559.464 110.32C560.005 109.418 559.283 108.157 559.644 107.255C560.005 106.715 560.366 106.354 560.727 105.813C561.269 105.092 561.449 104.191 561.269 103.29C561.63 102.208 562.172 101.126 562.713 100.045C563.074 99.1436 563.435 97.8817 562.172 97.5212C563.074 96.9804 563.616 95.8989 563.796 94.8173C563.796 94.4568 563.796 94.0962 563.977 93.916C564.518 93.3752 565.06 92.8344 565.602 92.4739C566.685 91.3923 567.768 90.3108 568.851 89.0489C569.754 87.9674 570.476 86.7056 570.837 85.4437C570.476 84.9029 559.825 89.77 558.019 90.6713C560.366 89.0489 562.352 87.0661 564.338 84.9029C564.699 84.3622 567.949 79.8556 566.504 79.4951C565.782 79.4951 563.977 81.1175 563.435 81.478C562.172 82.3793 560.908 83.2806 559.644 84.1819C557.658 85.624 555.673 87.0661 553.506 88.5082C555.311 86.345 557.117 84.1819 558.561 81.6582C559.103 80.5767 561.991 75.3491 560.186 74.4478C559.825 74.4478 556.936 78.4135 556.575 78.7741C555.131 80.3964 553.687 81.8385 552.242 83.2806C549.715 85.8042 547.368 88.8687 544.66 91.0318C546.465 87.9674 548.09 84.9029 549.534 81.6582C550.257 80.0359 550.618 78.4135 550.618 76.6109C550.618 75.5294 550.618 73.907 549.534 74.8083C547.91 76.0702 547.007 78.7741 545.924 80.5767C544.841 82.3793 543.938 83.8214 542.855 85.4437C541.772 87.0661 540.508 88.6884 539.605 90.3108C538.522 91.9331 537.439 93.5555 535.995 94.8173C536.536 93.0147 537.078 91.2121 537.619 89.2292C537.8 88.1476 538.883 83.8214 537.619 82.9201C536.356 82.0188 535.634 86.345 535.273 87.2463C534.55 89.2292 533.467 91.2121 532.384 93.0147C530.579 96.8002 528.412 100.225 526.065 103.65C523.899 106.534 521.552 109.418 519.205 112.122C514.692 117.17 512.345 123.659 509.096 129.427C507.471 132.312 505.666 135.016 504.041 137.719C502.777 140.243 501.152 142.767 498.986 144.75C494.834 148.175 489.237 149.076 484.543 151.239C483.28 151.78 480.211 153.943 481.474 155.746C482.016 156.647 481.836 155.746 482.197 155.746C482.558 155.746 483.099 156.106 483.28 156.467C484.002 157.368 483.821 157.368 483.099 157.909C482.558 158.089 482.197 158.269 481.655 158.449C476.239 160.613 470.643 162.595 465.046 164.578C457.644 167.102 450.423 169.986 443.383 173.411C439.05 175.574 433.453 179.179 428.579 177.016C428.037 176.836 427.676 176.476 427.135 176.295C426.774 175.935 426.232 175.574 425.691 175.214C424.607 175.033 425.329 175.935 425.691 176.295C427.676 178.819 431.468 179.54 434.537 179.54C432.551 180.802 430.384 181.523 428.037 181.703C426.954 181.703 425.871 181.703 424.607 181.343C424.066 180.982 423.344 180.802 422.622 180.802C421.719 181.343 423.885 182.064 424.246 182.064" fill="#e8f2ef"/>
<path d="M600.806 243.533C600.806 243.533 601.167 222.442 610.193 219.378C600.986 216.854 599.542 195.763 599.542 195.763C599.542 195.763 599.181 216.854 590.154 219.918C599.361 222.442 600.806 243.533 600.806 243.533Z" fill="#e8f2ef"/>
<path d="M35.0231 741.774C32.3151 741.774 29.9682 742.315 27.8019 743.216C25.6355 744.117 23.8302 745.56 22.3859 747.542C20.9417 749.525 19.8585 751.688 18.9559 754.212C18.2337 756.916 17.8727 759.8 17.8727 763.045C17.8727 766.29 18.4143 771.157 19.678 774.401C20.9417 777.646 22.747 779.989 25.2744 781.612C27.8019 783.234 31.0514 784.135 34.8425 784.135C38.6337 784.135 39.5363 783.955 41.8832 783.414C44.2301 782.874 46.577 782.333 48.9239 781.431V789.363C46.577 790.264 44.2301 790.985 41.8832 791.346C39.5363 791.706 36.8284 791.887 33.7594 791.887C27.9824 791.887 23.1081 790.625 19.3169 788.281C15.5258 785.938 12.6373 782.513 10.832 778.187C9.02668 773.861 8.12402 768.633 8.12402 762.865C8.12402 757.096 8.66562 754.573 9.92933 751.148C11.193 747.542 12.8178 744.478 15.1647 741.954C17.5116 739.431 20.2196 737.268 23.6497 736.006C26.8992 734.564 30.8709 733.843 35.2036 733.843C39.5363 733.843 40.8001 734.203 43.508 734.744C46.216 735.465 48.7434 736.366 51.2708 737.448L48.0213 745.199C46.0354 744.298 44.0496 743.577 41.8832 742.856C39.7169 742.135 37.5505 741.774 35.2036 741.774H35.0231Z" fill="#e8f2ef"/>
<path d="M77.0867 747.723C82.5027 747.723 86.6549 748.984 89.3628 751.328C92.0708 753.671 93.515 757.457 93.515 762.504V791.346H87.0159L85.2106 785.217H84.8496C83.5858 786.839 82.3221 788.101 81.0584 789.002C79.7947 790.084 78.3505 790.805 76.5452 791.346C74.9204 791.887 72.754 792.067 70.4071 792.067C68.0602 792.067 65.5328 791.526 63.547 790.625C61.5611 789.724 59.9363 788.281 58.8532 786.299C57.77 784.316 57.0479 781.972 57.0479 778.908C57.0479 774.582 58.6726 771.157 61.9222 768.994C65.1717 766.83 70.2266 765.569 76.9062 765.388L84.308 765.028V762.865C84.308 759.98 83.5858 757.817 82.3221 756.556C80.8779 755.294 79.0726 754.573 76.5452 754.573C74.0177 754.573 72.3929 754.933 70.2266 755.474C68.0602 756.015 66.2549 756.916 64.2691 757.637L61.2001 751.148C63.3664 750.066 65.7133 749.165 68.4213 748.444C71.1292 747.723 73.8372 747.362 76.7257 747.362L77.0867 747.723ZM84.4885 770.796H78.892C74.3788 771.157 71.1292 771.878 69.3239 773.32C67.5186 774.762 66.616 776.564 66.616 779.088C66.616 781.612 67.3381 782.693 68.6018 783.775C69.8655 784.676 71.4903 785.217 73.6567 785.217C76.7257 785.217 79.4336 784.316 81.4195 782.513C83.4053 780.71 84.4885 778.007 84.4885 774.582V770.796Z" fill="#e8f2ef"/>
<path d="M154.715 747.723C159.589 747.723 163.2 748.984 165.547 751.508C167.894 754.032 169.157 757.998 169.157 763.405V791.526H160.131V765.208C160.131 761.963 159.409 759.44 158.145 757.817C156.881 756.195 154.896 755.294 152.368 755.294C149.841 755.294 146.23 756.375 144.605 758.719C142.981 761.062 142.258 764.307 142.258 768.813V791.526H133.232V765.208C133.232 763.045 132.871 761.242 132.329 759.8C131.788 758.358 130.885 757.277 129.802 756.555C128.719 755.834 127.274 755.474 125.469 755.474C122.942 755.474 120.956 756.015 119.512 757.096C118.067 758.178 116.984 759.8 116.262 762.144C115.54 764.307 115.359 767.011 115.359 770.255V791.706H106.152V748.804H113.374L114.637 754.573H115.179C116.082 753.131 117.165 751.869 118.428 750.787C119.692 749.886 121.136 749.165 122.761 748.624C124.386 748.083 126.011 747.903 127.816 747.903C131.066 747.903 133.774 748.444 135.94 749.525C138.106 750.607 139.731 752.409 140.814 754.573H141.536C142.8 752.229 144.786 750.607 147.133 749.345C149.48 748.263 152.007 747.723 154.715 747.723Z" fill="#e8f2ef"/>
<path d="M204.18 747.723C209.235 747.723 213.387 749.525 216.456 753.311C219.525 757.096 221.15 762.504 221.15 769.895C221.15 777.285 220.428 778.908 218.983 782.153C217.539 785.397 215.553 787.921 213.026 789.724C210.498 791.346 207.429 792.247 203.999 792.247C200.569 792.247 200.028 791.887 198.403 791.346C196.778 790.805 195.514 790.084 194.251 789.183C193.167 788.281 192.084 787.2 191.362 786.118H190.821C190.821 787.2 191.001 788.281 191.182 789.543C191.182 790.805 191.182 791.887 191.182 792.968V810.454H181.975V748.624H189.376L190.64 754.573H191.001C191.723 753.311 192.806 752.229 193.89 751.148C194.973 750.066 196.417 749.345 198.042 748.624C199.667 748.083 201.652 747.723 203.819 747.723H204.18ZM201.652 755.113C199.125 755.113 197.139 755.654 195.695 756.555C194.251 757.637 193.167 759.079 192.445 761.062C191.723 763.045 191.362 765.568 191.362 768.453V769.715C191.362 772.959 191.723 775.663 192.265 777.826C192.806 779.989 194.07 781.792 195.514 782.874C197.139 783.955 199.125 784.676 201.833 784.676C204.541 784.676 205.805 784.135 207.249 782.874C208.693 781.612 209.776 779.989 210.498 777.646C211.221 775.483 211.582 772.779 211.582 769.715C211.582 765.028 210.679 761.423 209.054 758.899C207.429 756.375 204.902 755.113 201.472 755.113H201.652Z" fill="#e8f2ef"/>
<path d="M236.134 732.04C237.578 732.04 238.661 732.401 239.745 733.122C240.828 733.843 241.189 735.104 241.189 736.907C241.189 738.71 240.647 739.971 239.745 740.692C238.661 741.414 237.578 741.774 236.134 741.774C234.69 741.774 233.426 741.414 232.523 740.692C231.621 739.971 231.079 738.71 231.079 736.907C231.079 735.104 231.621 733.843 232.523 733.122C233.607 732.401 234.69 732.04 236.134 732.04ZM240.647 748.444V791.346H231.44V748.444H240.647Z" fill="#e8f2ef"/>
<path d="M276.031 747.723C280.906 747.723 284.697 748.985 287.405 751.508C290.113 754.032 291.376 757.998 291.376 763.405V791.346H282.35V765.028C282.35 761.783 281.628 759.259 280.364 757.637C278.92 756.015 276.934 755.113 274.046 755.113C269.893 755.113 267.005 756.375 265.38 758.899C263.755 761.423 263.033 765.208 263.033 769.895V791.166H253.826V748.263H261.047L262.311 754.032H262.853C263.755 752.59 265.019 751.328 266.283 750.246C267.727 749.345 269.171 748.624 270.977 748.083C272.782 747.542 274.407 747.362 276.392 747.362L276.031 747.723Z" fill="#e8f2ef"/>
<path d="M316.289 810.454C310.512 810.454 305.999 809.372 302.93 807.389C299.861 805.226 298.236 802.342 298.236 798.556C298.236 794.771 299.139 793.689 300.764 791.887C302.389 790.084 304.735 788.822 307.804 788.101C306.721 787.56 305.638 786.839 304.735 785.577C303.833 784.496 303.472 783.234 303.472 781.972C303.472 780.71 304.013 779.088 304.916 777.826C305.819 776.745 307.263 775.663 308.888 774.582C306.721 773.68 304.916 772.058 303.472 769.895C302.027 767.732 301.486 765.208 301.486 762.324C301.486 759.44 302.208 756.555 303.472 754.392C304.735 752.229 306.721 750.607 309.249 749.345C311.776 748.263 314.845 747.542 318.456 747.542C322.066 747.542 320.081 747.542 320.983 747.542C321.886 747.542 322.788 747.723 323.511 747.903C324.233 747.903 324.955 748.083 325.316 748.263H340.119V753.311L332.898 754.753C333.62 755.654 334.162 756.916 334.523 758.178C334.884 759.44 335.065 760.882 335.065 762.324C335.065 766.83 333.62 770.255 330.551 772.779C327.482 775.303 323.33 776.564 317.914 776.564C316.65 776.564 315.387 776.564 314.123 776.204C313.22 776.745 312.498 777.466 311.957 778.187C311.415 778.908 311.235 779.629 311.235 780.53C311.235 781.431 311.415 781.792 311.957 782.153C312.498 782.513 313.22 782.874 314.123 783.054C315.026 783.234 316.289 783.414 317.734 783.414H325.135C329.829 783.414 333.44 784.496 335.967 786.479C338.495 788.462 339.758 791.346 339.758 795.312C339.758 799.277 337.773 803.964 333.62 806.668C329.649 809.372 323.691 810.634 316.289 810.634V810.454ZM316.65 803.964C319.719 803.964 322.427 803.604 324.594 803.063C326.76 802.522 328.385 801.621 329.468 800.359C330.551 799.277 331.093 797.835 331.093 796.213C331.093 794.591 330.732 793.689 330.01 792.968C329.288 792.247 328.204 791.706 326.941 791.526C325.496 791.166 323.872 791.166 321.705 791.166H315.026C313.401 791.166 311.776 791.346 310.512 791.887C309.249 792.427 308.166 793.148 307.443 794.23C306.721 795.312 306.36 796.393 306.36 797.835C306.36 799.277 307.263 801.26 309.068 802.342C310.873 803.423 313.22 803.964 316.47 803.964H316.65ZM318.456 770.616C321.164 770.616 322.969 769.895 324.413 768.453C325.677 767.011 326.399 764.847 326.399 762.324C326.399 759.8 325.677 757.276 324.413 755.834C323.15 754.392 321.164 753.671 318.456 753.671C315.748 753.671 313.942 754.392 312.679 755.834C311.415 757.276 310.693 759.44 310.693 762.324C310.693 765.208 311.415 767.011 312.679 768.453C313.942 769.895 315.928 770.616 318.636 770.616H318.456Z" fill="#e8f2ef"/>
<path d="M369.727 791.346V734.744H379.114V783.414H403.125V791.346H369.727Z" fill="#e8f2ef"/>
<path d="M429.121 747.723C432.912 747.723 436.162 748.444 439.051 750.066C441.758 751.688 443.925 753.852 445.369 756.736C446.813 759.62 447.535 763.045 447.535 767.191V772.058H418.831C418.831 776.204 420.095 779.449 422.261 781.612C424.428 783.775 427.316 785.037 431.288 785.037C435.259 785.037 436.523 784.856 438.689 784.316C440.856 783.775 443.203 783.054 445.369 781.972V789.363C443.203 790.445 441.036 791.166 438.87 791.526C436.704 792.067 433.996 792.247 430.927 792.247C427.858 792.247 422.983 791.346 419.734 789.723C416.484 788.101 413.957 785.577 412.332 782.333C410.707 779.088 409.624 774.942 409.624 770.255C409.624 765.568 410.527 761.422 412.151 757.998C413.776 754.573 416.123 752.049 419.012 750.246C421.9 748.444 425.33 747.542 429.302 747.542L429.121 747.723ZM429.121 754.573C426.233 754.573 423.886 755.474 422.081 757.277C420.275 759.079 419.192 761.783 419.012 765.388H438.509C438.509 763.225 438.148 761.422 437.426 759.8C436.704 758.178 435.801 756.916 434.357 756.015C432.912 755.113 431.288 754.573 429.121 754.573Z" fill="#e8f2ef"/>
<path d="M486.529 779.088C486.529 781.972 485.807 784.316 484.544 786.299C483.099 788.281 481.114 789.724 478.586 790.625C475.878 791.706 472.809 792.067 469.018 792.067C465.227 792.067 463.422 791.887 461.255 791.346C459.089 790.985 457.103 790.264 455.117 789.363V781.432C457.103 782.333 459.45 783.234 461.977 783.955C464.505 784.676 466.852 785.037 469.199 785.037C471.545 785.037 474.253 784.496 475.698 783.595C476.961 782.693 477.684 781.432 477.684 779.809C477.684 778.187 477.503 778.007 476.961 777.286C476.42 776.564 475.517 775.843 474.073 774.942C472.629 774.221 470.462 773.139 467.754 772.058C465.046 770.976 462.699 769.895 460.894 768.813C459.089 767.732 457.645 766.47 456.742 764.847C455.839 763.405 455.298 761.423 455.298 758.899C455.298 755.113 456.742 752.229 459.811 750.246C462.88 748.263 466.852 747.362 471.726 747.362C476.6 747.362 476.781 747.542 479.128 748.083C481.475 748.624 483.822 749.345 485.988 750.427L483.099 757.277C481.114 756.375 479.128 755.834 477.322 755.294C475.337 754.753 473.351 754.392 471.365 754.392C469.379 754.392 467.213 754.753 465.949 755.474C464.685 756.195 464.144 757.277 464.144 758.538C464.144 759.8 464.505 760.341 465.046 761.062C465.588 761.783 466.671 762.504 468.115 763.225C469.56 763.946 471.545 764.847 474.253 765.749C476.781 766.65 478.947 767.732 480.933 768.813C482.738 769.895 484.183 771.157 485.266 772.779C486.349 774.401 486.71 776.384 486.71 778.728L486.529 779.088Z" fill="#e8f2ef"/>
<path d="M534.371 734.744C541.772 734.744 547.008 736.186 550.438 739.25C553.868 742.315 555.493 746.461 555.493 751.869C555.493 757.277 555.132 756.555 554.409 758.899C553.687 761.062 552.424 763.045 550.618 764.847C548.813 766.47 546.647 767.912 543.758 768.813C540.87 769.715 537.44 770.255 533.287 770.255H527.149V791.526H517.762V734.924H534.19L534.371 734.744ZM533.829 742.495H527.33V762.324H532.385C535.273 762.324 537.801 761.963 539.786 761.242C541.772 760.521 543.397 759.44 544.48 757.998C545.563 756.555 546.105 754.573 546.105 752.049C546.105 749.525 545.202 746.281 543.217 744.658C541.231 743.036 538.162 742.315 534.009 742.315L533.829 742.495Z" fill="#e8f2ef"/>
<path d="M582.753 747.723C588.169 747.723 592.321 748.984 595.029 751.328C597.737 753.671 599.181 757.457 599.181 762.504V791.346H592.682L590.877 785.217H590.516C589.252 786.839 587.988 788.101 586.724 789.002C585.461 790.084 584.016 790.805 582.211 791.346C580.586 791.887 578.42 792.067 576.073 792.067C573.726 792.067 571.199 791.526 569.213 790.625C567.227 789.724 565.602 788.281 564.519 786.299C563.436 784.316 562.714 781.972 562.714 778.908C562.714 774.582 564.339 771.157 567.588 768.994C570.838 766.83 575.893 765.569 582.572 765.388L589.974 765.028V762.865C589.974 759.98 589.252 757.817 587.988 756.556C586.544 755.294 584.739 754.573 582.211 754.573C579.684 754.573 578.059 754.933 575.893 755.474C573.726 756.015 571.921 756.916 569.935 757.637L566.866 751.148C569.032 750.066 571.379 749.165 574.087 748.444C576.795 747.723 579.503 747.362 582.392 747.362L582.753 747.723ZM590.154 770.796H584.558C580.045 771.157 576.795 771.878 574.99 773.32C573.185 774.762 572.282 776.564 572.282 779.088C572.282 781.612 573.004 782.693 574.268 783.775C575.532 784.676 577.156 785.217 579.323 785.217C582.392 785.217 585.1 784.316 587.085 782.513C589.071 780.71 590.154 778.007 590.154 774.582V770.796Z" fill="#e8f2ef"/>
<path d="M627.885 784.856C629.149 784.856 630.232 784.856 631.496 784.496C632.579 784.316 633.662 783.955 634.745 783.775V790.625C633.662 790.985 632.398 791.526 630.774 791.706C629.149 792.067 627.524 792.247 625.719 792.247C623.913 792.247 621.025 791.887 619.22 790.985C617.414 790.084 615.789 788.822 614.526 786.839C613.443 784.856 612.901 782.153 612.901 778.547V755.474H607.124V751.328L613.443 748.083L616.512 738.89H622.289V748.444H634.565V755.474H622.289V778.367C622.289 780.53 622.83 782.153 623.913 783.234C624.997 784.316 626.441 784.856 628.246 784.856H627.885Z" fill="#e8f2ef"/>
<path d="M653.159 730.598C653.881 731.86 654.784 733.122 656.048 734.564C657.311 736.006 658.395 737.448 659.658 738.89C660.922 740.332 662.005 741.414 663.088 742.495V743.396H656.95C655.506 742.495 654.062 741.414 652.437 740.332C650.812 739.07 649.368 737.808 648.104 736.366C646.66 737.808 645.216 739.07 643.772 740.332C642.327 741.594 640.883 742.675 639.439 743.577H633.301V742.675C634.203 741.594 635.467 740.512 636.731 739.07C637.995 737.628 639.258 736.366 640.342 734.924C641.425 733.482 642.508 732.22 643.049 730.958H653.34L653.159 730.598ZM652.437 791.346H643.23V748.444H652.437V791.346Z" fill="#e8f2ef"/>
<path d="M694.321 779.088C694.321 781.972 693.598 784.316 692.335 786.299C690.89 788.281 688.905 789.724 686.377 790.625C683.669 791.706 680.6 792.067 676.809 792.067C673.018 792.067 671.213 791.887 669.046 791.346C666.88 790.985 664.894 790.264 662.908 789.363V781.432C664.894 782.333 667.241 783.234 669.768 783.955C672.296 784.676 674.643 785.037 676.99 785.037C679.336 785.037 682.044 784.496 683.489 783.595C684.752 782.693 685.475 781.432 685.475 779.809C685.475 778.187 685.294 778.007 684.752 777.286C684.211 776.564 683.308 775.843 681.864 774.942C680.42 774.221 678.253 773.139 675.545 772.058C672.837 770.976 670.49 769.895 668.685 768.813C666.88 767.732 665.436 766.47 664.533 764.847C663.63 763.405 663.089 761.423 663.089 758.899C663.089 755.113 664.533 752.229 667.602 750.246C670.671 748.263 674.643 747.362 679.517 747.362C684.391 747.362 684.572 747.542 686.919 748.083C689.266 748.624 691.613 749.345 693.779 750.427L690.89 757.277C688.905 756.375 686.919 755.834 685.113 755.294C683.128 754.753 681.142 754.392 679.156 754.392C677.17 754.392 675.004 754.753 673.74 755.474C672.476 756.195 671.935 757.277 671.935 758.538C671.935 759.8 672.296 760.341 672.837 761.062C673.379 761.783 674.462 762.504 675.906 763.225C677.351 763.946 679.336 764.847 682.044 765.749C684.572 766.65 686.738 767.732 688.724 768.813C690.529 769.895 691.974 771.157 693.057 772.779C694.14 774.401 694.501 776.384 694.501 778.728L694.321 779.088Z" fill="#e8f2ef"/>
<path d="M268.63 823.613L276.212 846.686H300.403L280.725 860.927L288.308 884L268.63 869.759L248.952 884L256.534 860.927L236.856 846.686H261.228L268.63 823.613Z" fill="#e8f2ef"/>
<path d="M350.41 823.613L357.992 846.686H382.364L362.686 860.927L370.088 884L350.41 869.759L330.913 884L338.315 860.927L318.637 846.686H343.008L350.41 823.613Z" fill="#e8f2ef"/>
<path d="M432.371 823.613L439.773 846.686H464.144L444.467 860.927L452.049 884L432.371 869.759L412.693 884L420.095 860.927L400.598 846.686H424.789L432.371 823.613Z" fill="#e8f2ef"/>
</g>
<defs>
<clipPath id="clip0_14012_2">
<rect width="701" height="884" fill="white"/>
</clipPath>
</defs>
</svg>
